<svg id="Layer_1" data-name="Layer 1" xmlns="http://www.w3.org/2000/svg" viewBox="0 0 913.79 812.14"><defs><style>.cls-1{fill:#fff;}.cls-2{fill:#231f20;}</style></defs><title>logo</title><path class="cls-1" d="M140.36,364.64c-1.42,0-2.93-.41-4.55-.41-51,.41-97.61,36.67-109.84,87.54-3.74,15.45-3.34,30.9-3.34,46.56V899.49c0,17-.2,33.68,4.85,50.26,14.66,48.2,59,82.09,108.53,82.4,17.49.1,35,.2,52.45.2V364.64Z" transform="translate(-22.62 -221.07)"/><path class="cls-1" d="M936.14,574.23c0-31,.61-62.1,0-93.1v-2.37c-.81-49.95-33.55-94.55-80.54-109.28-13.54-4.22-27.48-4.84-41.53-4.84H770.42v667.71h34.15c8.49,0,17,.1,25.47-.51a114.72,114.72,0,0,0,64-25.75c27-21.73,42.14-55.93,42.14-90.74V574.23Z" transform="translate(-22.62 -221.07)"/><path class="cls-1" d="M658.25,365V346.1C657.44,291,621,241.77,569,226.22c-24-7.21-50.73-4.74-75.49-4.74H431.19c-13,0-26.08.62-38.71,4-24.05,6.38-47.09,21-62.75,40.78-18.49,23.28-29,50.78-29.1,80.85v17.51H249v667.71c9.6,0,39.51-.31,49.11-.31H709.79V365C702.71,365.05,665.32,365,658.25,365Zm-60.63-10.61v10.3H360.85c-.1-3.09-.1-6.69-.1-10.19,0-5.36.2-10.72.71-16-.2,1.24-.4,2.58-.61,3.81.41-2.78.71-5.35,1.12-8.13-.21,1.44-.31,2.88-.51,4.32A101.7,101.7,0,0,1,365.91,322c-.61,1.24-1.12,2.47-1.62,3.61l3-7.42c-.5,1.24-1,2.47-1.41,3.71a95.41,95.41,0,0,1,6.56-11.84c.51-.73,1-1.45,1.52-2.27l-.3.31c-4.25,4.94,4-5.87,1.11-1.44l-.81,1.13c1.82-2.06,3.54-4.12,5.46-6.18,1.82-1.85,3.74-3.61,5.76-5.36-.41.31-.91.62-1.32.93-1.92,1.34,6.67-5.56,1.52-1a.1.1,0,0,0-.1.1,25.07,25.07,0,0,1,2.52-1.75,88.63,88.63,0,0,1,11.73-6.79c-1.32.51-2.53,1-3.74,1.54l7.27-3.09c-1.11.52-2.32,1-3.43,1.65a87.25,87.25,0,0,1,13.44-3.92c-.61.11-1.11.11-1.72.21l3.64-.62c-.61.11-1.32.11-1.92.21,17.48-2.06,35.77-.52,53.25-.52H522c7.58,0,15.26-.2,22.84.42-1.72-.31-3.54-.62-5.26-.83,2.73.41,5.36.93,8.09,1.24-.91-.11-1.82-.21-2.83-.31a93.18,93.18,0,0,1,14.75,4.22c-1.21-.62-2.52-1.23-3.74-1.75,2.43,1,4.85,2.16,7.28,3.19-1.21-.51-2.32-.92-3.54-1.34a106.81,106.81,0,0,1,11.52,6.6c.81.51,1.52,1,2.23,1.54a1.45,1.45,0,0,1-.41-.41c-4.85-4.33,5.76,4.12,1.42,1.13-.31-.2-.71-.51-1-.72,2,1.85,4,3.61,6,5.56s3.53,3.81,5.25,5.87c-.3-.41-.6-.92-.91-1.34-1.31-1.95,5.46,6.8,1,1.55l-.1-.1c.61.82,1.21,1.64,1.72,2.47a86.49,86.49,0,0,1,6.67,12c-.51-1.34-1-2.58-1.52-3.81l3,7.41c-.51-1.23-1-2.37-1.62-3.5a101.72,101.72,0,0,1,4.34,16.27c-.1-1.44-.3-2.88-.5-4.42.4,2.78.71,5.45,1.11,8.24-.2-1.34-.4-2.58-.61-3.82.21,2.79.41,5.46.41,8.24a25.59,25.59,0,0,0,1.11,7.63h-1.11Z" transform="translate(-22.62 -221.07)"/><path class="cls-2" d="M376.12,471.31c62.24,0,105.55,41.8,105.55,102.31,0,60.21-43.89,102.31-107.27,102.31H290.94V471.31ZM336.26,637.05h41c33.55,0,58.22-25.72,58.22-63.14,0-37.71-25.81-63.72-60.23-63.72h-39Z" transform="translate(-22.62 -221.07)"/><path class="cls-2" d="M575,509.6V554H672v38.3H575v45.3H685.72v38.3h-156V471.31H682.56V509.6Z" transform="translate(-22.62 -221.07)"/><path class="cls-2" d="M367.37,842.38l-29,32.74v50.57H293.09V721.07h45.32v93l83.46-93h52.48l-75.43,85.36,80.6,119.26H425Z" transform="translate(-22.62 -221.07)"/><path class="cls-2" d="M621.74,925.69H576.42V860.8L502.14,721.07h45.6l51.34,91.79,50.19-91.79h45.6L621.74,859.63Z" transform="translate(-22.62 -221.07)"/></svg>